# xmcd CD database file
#
# Track frame offsets:
#	150
#	14733
#	28113
#	41476
#	55349
#	71437
#	82575
#	96697
#	109519
#	122067
#	135603
#	149103
#	163509
#	177751
#	193695
#	205862
#	219773
#	232421
#
# Disc length: 3283 seconds
#
# Revision: 0
# Processed by: cddbd v1.5.2PL0 Copyright (c) Steve Scherf et al.
# Submitted via: CDex 1.51
#
DISCID=070cd112
DTITLE=Various Artist - Chicago Jazz CD 2
DYEAR=2003
DGENRE=Jazz
TTITLE0=I Found a New Baby
TTITLE1=Craze-O-Logy
TTITLE2=Shim-Me-Sha-Wabble
TTITLE3=Riverboat Shuffle
TTITLE4=I'm Gonna Stomp, Mr. Henry Lee
TTITLE5=Walking the Dog
TTITLE6=What Do I Care What Somebody Said?
TTITLE7=That's a Plenty
TTITLE8=Beau Koo Jack
TTITLE9=Wa-Da-Da (Ev'rybody's Doin' It Now
TTITLE10=The Darktown Strutters' Ball
TTITLE11=Savoyagers' Stomp
TTITLE12=Someday Sweetheart
TTITLE13=That's a Serious Thing
TTITLE14=Jazz Me Blues
TTITLE15=Makin' Friends
TTITLE16=When My Sugar Walks Down the Street
TTITLE17=Crying All Day
EXTD=YEAR: 2003
EXTT0=
EXTT1=
EXTT2=
EXTT3=
EXTT4=
EXTT5=
EXTT6=
EXTT7=
EXTT8=
EXTT9=
EXTT10=
EXTT11=
EXTT12=
EXTT13=
EXTT14=
EXTT15=
EXTT16=
EXTT17=
PLAYORDER=
